<?xml version="1.0" standalone="no"?>
<!DOCTYPE svg PUBLIC "-//W3C//DTD SVG 20010904//EN"
 "http://www.w3.org/TR/2001/REC-SVG-20010904/DTD/svg10.dtd">
<svg version="1.0" xmlns="http://www.w3.org/2000/svg"
 width="750.000000pt" height="750.000000pt" viewBox="0 0 750.000000 750.000000"
 preserveAspectRatio="xMidYMid meet">
<metadata>
Created by potrace 1.11, written by Peter Selinger 2001-2013
</metadata>
<g transform="translate(0.000000,750.000000) scale(0.100000,-0.100000)"
fill="#000000" stroke="none">
<path d="M3687 6829 c-60 -93 -2337 -4048 -3134 -5444 -358 -627 -417 -734
-408 -743 7 -7 7215 -5 7223 2 8 8 -3519 6110 -3604 6235 l-23 34 -54 -84z
m-60 -1974 l-2 -240 -105 -13 c-346 -42 -721 -208 -1005 -445 -85 -71 -103
-81 -84 -44 31 58 1026 1779 1100 1902 l84 140 7 -530 c4 -291 7 -638 5 -770z
m433 998 c85 -148 347 -603 582 -1012 236 -409 427 -745 426 -747 -2 -1 -42
27 -88 63 -233 181 -497 319 -760 398 -78 23 -236 53 -305 57 l-40 3 2 670 c3
651 7 835 22 835 4 0 76 -120 161 -267z m0 -1577 c336 -79 570 -207 801 -436
223 -222 362 -475 430 -782 27 -121 37 -414 19 -555 -32 -256 -132 -502 -286
-705 -63 -83 -211 -236 -299 -308 -153 -126 -326 -221 -510 -280 -102 -33
-324 -81 -337 -73 -19 10 1 3100 20 3146 9 21 17 26 34 23 13 -3 70 -16 128
-30z m-454 2 c11 -32 17 -1849 9 -2554 l-7 -582 -42 5 c-155 17 -325 68 -496
149 -196 94 -322 185 -467 338 -201 212 -338 474 -405 773 -20 85 -23 127 -22
313 0 184 3 230 22 316 110 507 416 895 882 1118 174 83 370 143 476 145 35 1
43 -3 50 -21z m-1717 -1220 c-33 -176 -33 -457 0 -642 87 -492 306 -862 690
-1169 166 -132 376 -252 546 -312 44 -16 84 -31 88 -35 14 -12 -1294 -22
-1973 -14 -363 4 -660 9 -660 11 0 7 596 1044 955 1663 395 680 367 632 372
626 3 -2 -5 -60 -18 -128z m4033 -438 c346 -598 910 -1585 948 -1661 l29 -57
-47 -6 c-63 -8 -2609 -20 -2601 -12 3 3 60 28 127 56 67 27 158 68 203 91 380
190 677 491 854 864 73 153 104 237 146 400 27 107 31 141 36 305 5 165 -8
462 -23 552 l-6 33 30 -45 c16 -25 153 -259 304 -520z"/>
</g>
</svg>
