<svg height="100%" style={{"fillRule":"evenodd","clipRule":"evenodd","strokeLinejoin":"round","strokeMiterlimit":"1.41421"}} width="100%" version="1.1" viewBox="0 0 491 491" xmlSpace="preserve">
	<g>
		<path style={{"fillRule":"nonzero"}} d="M225.106,100.239c20.533,-7.689 44.455,-2.891 59.272,12.938c10.628,11.354 15.553,13.671 24.601,38.327l-31.468,-11.943l-4.27,19.007l54.147,24.695l11.413,-64.054l-12.682,-2.26l-4.38,24.586c-16.856,-45.324 -48.094,-57.678 -78.349,-58.066c-25.639,-0.327 -53.635,21.771 -63.171,33.477c-9.55,11.722 -21.499,32.039 -27.347,51.455l12.072,4.819c10.497,-34.852 36.172,-63.996 60.162,-72.981Z"/>
		<path style={{"fillRule":"nonzero"}} d="M267.112,275.791c-20.494,6.494 -44.643,1.712 -59.857,-12.789c-10.912,-10.402 -15.911,-12.58 -25.498,-34.89l31.879,11.345l3.916,-16.975l-54.79,-24.061l-10.35,58.085l12.796,2.28l3.917,-21.98c17.85,41.016 49.505,52.725 79.935,53.674c25.787,0.804 53.498,-18.474 62.855,-28.792c9.369,-10.331 20.98,-28.329 26.475,-45.64l-12.234,-4.565c-9.863,31.073 -35.101,56.721 -59.044,64.308Z"/>
	</g>
	<g>
		<path style={{"fillRule":"nonzero"}} d="M245.791,0c135.529,0 245.791,74.841 245.791,166.833c0,36.967 -32.064,93.187 -100.908,176.926c-46.979,57.138 -93.74,105.4 -95.713,107.433l-33.798,34.773c-3.408,3.507 -9.181,5.617 -15.372,5.617c-6.191,0 -11.964,-2.11 -15.372,-5.617l-33.797,-34.771c-1.953,-2.01 -48.375,-49.855 -95.714,-107.435c-68.844,-83.735 -100.908,-139.955 -100.908,-176.926c0,-91.992 110.262,-166.833 245.791,-166.833Zm-112.721,331.576c46.68,56.775 92.368,103.869 94.293,105.848l18.428,18.959l18.422,-18.954c1.936,-1.995 47.974,-49.511 94.299,-105.853c63.859,-77.676 106.238,-133.959 106.238,-165.598c0,-78.207 -103.738,-140.978 -218.959,-140.978c-115.221,0 -220.959,62.771 -220.959,140.978c0,31.643 44.379,87.924 108.238,165.598Z"/>
		<path style={{"fillRule":"nonzero"}} d="M245.791,29.787c107.125,0 194.277,68.467 194.277,149.44c0,80.973 -87.152,163.679 -194.277,163.679c-107.125,0 -194.277,-82.706 -194.277,-163.679c0,-80.973 87.152,-149.44 194.277,-149.44Zm0,300.613c78.173,0 174.917,-90.789 174.917,-149.878c0,-59.09 -96.744,-138.229 -174.917,-138.229c-78.175,0 -174.917,77.844 -174.917,136.934c0,59.09 96.742,151.173 174.917,151.173Z"/>
	</g>
</svg>