<?xml version="1.0" encoding="UTF-8" standalone="no"?><!DOCTYPE svg PUBLIC "-//W3C//DTD SVG 1.1//EN" "http://www.w3.org/Graphics/SVG/1.1/DTD/svg11.dtd"><svg width="100%" height="100%" viewBox="0 0 300 261" version="1.1" xmlns="http://www.w3.org/2000/svg" xmlns:xlink="http://www.w3.org/1999/xlink" xml:space="preserve" xmlns:serif="http://www.serif.com/" style="fill-rule:evenodd;clip-rule:evenodd;stroke-miterlimit:1;"><path d="M150,5.5l145,250l-290,0l145,-250Z" style="fill-opacity:0;"/><path d="M295,255.5l-290,0l145,-250l145,250Zm-270.904,-11l251.808,0l-125.904,-217.075l-125.904,217.075Z"/><path d="M150,254l0.299,-235.484" style="fill-opacity:0.14902;stroke:#000;stroke-width:11px;"/><circle cx="150" cy="172" r="73" style="fill-opacity:0;"/><path d="M150.472,99.001l0.471,0.005l0.47,0.007l0.47,0.011l0.469,0.013l0.468,0.017l0.468,0.019l0.466,0.022l0.466,0.025l0.465,0.028l0.465,0.031l0.463,0.034l0.463,0.037l0.462,0.039l0.461,0.043l0.46,0.045l0.46,0.048l0.458,0.051l0.458,0.054l0.457,0.057l0.456,0.059l0.455,0.063l0.455,0.065l0.453,0.068l0.452,0.07l0.452,0.074l0.451,0.076l0.449,0.079l0.449,0.082l0.448,0.084l0.446,0.087l0.446,0.09l0.445,0.093l0.444,0.095l0.443,0.098l0.442,0.101l0.441,0.103l0.439,0.106l0.439,0.109l0.438,0.111l0.437,0.114l0.435,0.116l0.435,0.12l0.433,0.121l0.432,0.125l0.432,0.127l0.43,0.129l0.429,0.132l0.428,0.135l0.427,0.137l0.425,0.14l0.425,0.142l0.423,0.145l0.422,0.147l0.421,0.15l0.42,0.153l0.419,0.155l0.417,0.157l0.416,0.16l0.415,0.162l0.414,0.165l0.412,0.167l0.412,0.169l0.41,0.172l0.408,0.175l0.408,0.177l0.406,0.179l0.405,0.182l0.403,0.184l0.402,0.186l0.401,0.189l0.4,0.191l0.398,0.194l0.397,0.196l0.395,0.198l0.394,0.2l0.393,0.203l0.392,0.205l0.39,0.207l0.388,0.21l0.387,0.212l0.386,0.214l0.384,0.217l0.383,0.219l0.382,0.22l0.38,0.224l0.378,0.225l0.377,0.228l0.376,0.23l0.374,0.232l0.372,0.234l0.371,0.236l0.37,0.239l0.368,0.24l0.366,0.243l0.365,0.245l0.363,0.248l0.362,0.249l0.36,0.251l0.359,0.254l0.357,0.255l0.355,0.258l0.354,0.26l0.352,0.261l0.351,0.264l0.349,0.266l0.347,0.268l0.346,0.27l0.344,0.272l0.342,0.274l0.341,0.276l0.339,0.278l0.337,0.28l0.335,0.282l0.334,0.284l0.332,0.286l0.33,0.288l0.329,0.29l0.327,0.292l0.325,0.294l0.323,0.295l0.322,0.298l0.319,0.299l0.318,0.301l0.316,0.304l0.315,0.305l0.312,0.307l0.311,0.308l0.308,0.311l0.307,0.312l0.305,0.315l0.304,0.316l0.301,0.318l0.299,0.319l0.298,0.322l0.295,0.323l0.294,0.325l0.292,0.327l0.29,0.329l0.288,0.33l0.286,0.332l0.284,0.334l0.282,0.335l0.28,0.337l0.278,0.339l0.276,0.341l0.274,0.342l0.272,0.344l0.27,0.346l0.268,0.347l0.266,0.349l0.264,0.351l0.261,0.352l0.26,0.354l0.258,0.355l0.255,0.357l0.254,0.359l0.251,0.36l0.249,0.362l0.248,0.363l0.245,0.365l0.243,0.366l0.24,0.368l0.239,0.37l0.236,0.371l0.234,0.372l0.232,0.374l0.23,0.376l0.228,0.377l0.225,0.378l0.224,0.38l0.22,0.382l0.219,0.383l0.217,0.384l0.214,0.386l0.212,0.387l0.21,0.388l0.207,0.39l0.205,0.392l0.203,0.393l0.2,0.394l0.198,0.395l0.196,0.397l0.194,0.398l0.191,0.4l0.189,0.401l0.186,0.402l0.184,0.403l0.182,0.405l0.179,0.406l0.177,0.408l0.175,0.408l0.172,0.41l0.169,0.412l0.167,0.412l0.165,0.414l0.162,0.415l0.16,0.416l0.157,0.417l0.155,0.419l0.153,0.42l0.15,0.421l0.147,0.422l0.145,0.423l0.142,0.425l0.14,0.425l0.137,0.427l0.135,0.428l0.132,0.429l0.129,0.43l0.127,0.432l0.125,0.432l0.121,0.433l0.12,0.435l0.116,0.435l0.114,0.437l0.111,0.438l0.109,0.439l0.106,0.439l0.103,0.441l0.101,0.442l0.098,0.443l0.095,0.444l0.093,0.445l0.09,0.446l0.087,0.446l0.084,0.448l0.082,0.449l0.079,0.449l0.076,0.451l0.074,0.452l0.07,0.452l0.068,0.453l0.065,0.455l0.063,0.455l0.059,0.456l0.057,0.457l0.054,0.458l0.051,0.458l0.048,0.46l0.045,0.46l0.043,0.461l0.039,0.462l0.037,0.463l0.034,0.463l0.031,0.465l0.028,0.465l0.025,0.466l0.022,0.466l0.019,0.468l0.017,0.468l0.013,0.469l0.011,0.47l0.007,0.47l0.005,0.471l0.001,0.472l-0.001,0.472l-0.005,0.471l-0.007,0.47l-0.011,0.47l-0.013,0.469l-0.017,0.468l-0.019,0.468l-0.022,0.466l-0.025,0.466l-0.028,0.465l-0.031,0.465l-0.034,0.463l-0.037,0.463l-0.039,0.462l-0.043,0.461l-0.045,0.46l-0.048,0.46l-0.051,0.458l-0.054,0.458l-0.057,0.457l-0.059,0.456l-0.063,0.455l-0.065,0.455l-0.068,0.453l-0.07,0.452l-0.074,0.452l-0.076,0.451l-0.079,0.449l-0.082,0.449l-0.084,0.448l-0.087,0.446l-0.09,0.446l-0.093,0.445l-0.095,0.444l-0.098,0.443l-0.101,0.442l-0.103,0.441l-0.106,0.439l-0.109,0.439l-0.111,0.438l-0.114,0.437l-0.116,0.435l-0.12,0.435l-0.121,0.433l-0.125,0.432l-0.127,0.432l-0.129,0.43l-0.132,0.429l-0.135,0.428l-0.137,0.427l-0.14,0.425l-0.142,0.425l-0.145,0.423l-0.147,0.422l-0.15,0.421l-0.153,0.42l-0.155,0.419l-0.157,0.417l-0.16,0.416l-0.162,0.415l-0.165,0.414l-0.167,0.412l-0.169,0.412l-0.172,0.41l-0.175,0.408l-0.177,0.408l-0.179,0.406l-0.182,0.405l-0.184,0.403l-0.186,0.402l-0.189,0.401l-0.191,0.4l-0.194,0.398l-0.196,0.397l-0.198,0.395l-0.2,0.394l-0.203,0.393l-0.205,0.392l-0.207,0.39l-0.21,0.388l-0.212,0.387l-0.214,0.386l-0.217,0.384l-0.219,0.383l-0.22,0.382l-0.224,0.38l-0.225,0.378l-0.228,0.377l-0.23,0.376l-0.232,0.374l-0.234,0.372l-0.236,0.371l-0.239,0.37l-0.24,0.368l-0.243,0.366l-0.245,0.365l-0.248,0.363l-0.249,0.362l-0.251,0.36l-0.254,0.359l-0.255,0.357l-0.258,0.355l-0.26,0.354l-0.261,0.352l-0.264,0.351l-0.266,0.349l-0.268,0.347l-0.27,0.346l-0.272,0.344l-0.274,0.342l-0.276,0.341l-0.278,0.339l-0.28,0.337l-0.282,0.335l-0.284,0.334l-0.286,0.332l-0.288,0.33l-0.29,0.329l-0.292,0.327l-0.294,0.325l-0.295,0.323l-0.298,0.322l-0.299,0.319l-0.301,0.318l-0.304,0.316l-0.305,0.315l-0.307,0.312l-0.308,0.311l-0.311,0.308l-0.312,0.307l-0.315,0.305l-0.316,0.304l-0.318,0.301l-0.319,0.299l-0.322,0.298l-0.323,0.295l-0.325,0.294l-0.327,0.292l-0.329,0.29l-0.33,0.288l-0.332,0.286l-0.334,0.284l-0.335,0.282l-0.337,0.28l-0.339,0.278l-0.341,0.276l-0.342,0.274l-0.344,0.272l-0.346,0.27l-0.347,0.268l-0.349,0.266l-0.351,0.264l-0.352,0.261l-0.354,0.26l-0.355,0.258l-0.357,0.255l-0.359,0.254l-0.36,0.251l-0.362,0.249l-0.363,0.248l-0.365,0.245l-0.366,0.243l-0.368,0.24l-0.37,0.239l-0.371,0.236l-0.372,0.234l-0.374,0.232l-0.376,0.23l-0.377,0.228l-0.378,0.225l-0.38,0.224l-0.382,0.22l-0.383,0.219l-0.384,0.217l-0.386,0.214l-0.387,0.212l-0.388,0.21l-0.39,0.207l-0.392,0.205l-0.393,0.203l-0.394,0.2l-0.395,0.198l-0.397,0.196l-0.398,0.194l-0.4,0.191l-0.401,0.189l-0.402,0.186l-0.403,0.184l-0.405,0.182l-0.406,0.179l-0.408,0.177l-0.408,0.175l-0.41,0.172l-0.412,0.169l-0.412,0.167l-0.414,0.165l-0.415,0.162l-0.416,0.16l-0.417,0.157l-0.419,0.155l-0.42,0.153l-0.421,0.15l-0.422,0.147l-0.423,0.145l-0.425,0.142l-0.425,0.14l-0.427,0.137l-0.428,0.135l-0.429,0.132l-0.43,0.129l-0.432,0.127l-0.432,0.125l-0.433,0.121l-0.435,0.12l-0.435,0.116l-0.437,0.114l-0.438,0.111l-0.439,0.109l-0.439,0.106l-0.441,0.103l-0.442,0.101l-0.443,0.098l-0.444,0.095l-0.445,0.093l-0.446,0.09l-0.446,0.087l-0.448,0.084l-0.449,0.082l-0.449,0.079l-0.451,0.076l-0.452,0.074l-0.452,0.07l-0.453,0.068l-0.455,0.065l-0.455,0.063l-0.456,0.059l-0.457,0.057l-0.458,0.054l-0.458,0.051l-0.46,0.048l-0.46,0.045l-0.461,0.043l-0.462,0.039l-0.463,0.037l-0.463,0.034l-0.465,0.031l-0.465,0.028l-0.466,0.025l-0.466,0.022l-0.468,0.019l-0.468,0.017l-0.469,0.013l-0.47,0.011l-0.47,0.007l-0.471,0.005l-0.472,0.001l-0.472,-0.001l-0.471,-0.005l-0.47,-0.007l-0.47,-0.011l-0.469,-0.013l-0.468,-0.017l-0.468,-0.019l-0.466,-0.022l-0.466,-0.025l-0.465,-0.028l-0.465,-0.031l-0.463,-0.034l-0.463,-0.037l-0.462,-0.039l-0.461,-0.043l-0.46,-0.045l-0.46,-0.048l-0.458,-0.051l-0.458,-0.054l-0.457,-0.057l-0.456,-0.059l-0.455,-0.063l-0.455,-0.065l-0.453,-0.068l-0.452,-0.07l-0.452,-0.074l-0.451,-0.076l-0.449,-0.079l-0.449,-0.082l-0.448,-0.084l-0.446,-0.087l-0.446,-0.09l-0.445,-0.093l-0.444,-0.095l-0.443,-0.098l-0.442,-0.101l-0.441,-0.103l-0.439,-0.106l-0.439,-0.109l-0.438,-0.111l-0.437,-0.114l-0.435,-0.116l-0.435,-0.12l-0.433,-0.121l-0.432,-0.125l-0.432,-0.127l-0.43,-0.129l-0.429,-0.132l-0.428,-0.135l-0.427,-0.137l-0.425,-0.14l-0.425,-0.142l-0.423,-0.145l-0.422,-0.147l-0.421,-0.15l-0.42,-0.153l-0.419,-0.155l-0.417,-0.157l-0.416,-0.16l-0.415,-0.162l-0.414,-0.165l-0.412,-0.167l-0.412,-0.169l-0.41,-0.172l-0.408,-0.175l-0.408,-0.177l-0.406,-0.179l-0.405,-0.182l-0.403,-0.184l-0.402,-0.186l-0.401,-0.189l-0.4,-0.191l-0.398,-0.194l-0.397,-0.196l-0.395,-0.198l-0.394,-0.2l-0.393,-0.203l-0.392,-0.205l-0.39,-0.207l-0.388,-0.21l-0.387,-0.212l-0.386,-0.214l-0.384,-0.217l-0.383,-0.219l-0.382,-0.22l-0.38,-0.224l-0.378,-0.225l-0.377,-0.228l-0.376,-0.23l-0.374,-0.232l-0.372,-0.234l-0.371,-0.236l-0.37,-0.239l-0.368,-0.24l-0.366,-0.243l-0.365,-0.245l-0.363,-0.248l-0.362,-0.249l-0.36,-0.251l-0.359,-0.254l-0.357,-0.255l-0.355,-0.258l-0.354,-0.26l-0.352,-0.261l-0.351,-0.264l-0.349,-0.266l-0.347,-0.268l-0.346,-0.27l-0.344,-0.272l-0.342,-0.274l-0.341,-0.276l-0.339,-0.278l-0.337,-0.28l-0.335,-0.282l-0.334,-0.284l-0.332,-0.286l-0.33,-0.288l-0.329,-0.29l-0.327,-0.292l-0.325,-0.294l-0.323,-0.295l-0.322,-0.298l-0.319,-0.299l-0.318,-0.301l-0.316,-0.304l-0.315,-0.305l-0.312,-0.307l-0.311,-0.308l-0.308,-0.311l-0.307,-0.312l-0.305,-0.315l-0.304,-0.316l-0.301,-0.318l-0.299,-0.319l-0.298,-0.322l-0.295,-0.323l-0.294,-0.325l-0.292,-0.327l-0.29,-0.329l-0.288,-0.33l-0.286,-0.332l-0.284,-0.334l-0.282,-0.335l-0.28,-0.337l-0.278,-0.339l-0.276,-0.341l-0.274,-0.342l-0.272,-0.344l-0.27,-0.346l-0.268,-0.347l-0.266,-0.349l-0.264,-0.351l-0.261,-0.352l-0.26,-0.354l-0.258,-0.355l-0.255,-0.357l-0.254,-0.359l-0.251,-0.36l-0.249,-0.362l-0.248,-0.363l-0.245,-0.365l-0.243,-0.366l-0.24,-0.368l-0.239,-0.37l-0.236,-0.371l-0.234,-0.372l-0.232,-0.374l-0.23,-0.376l-0.228,-0.377l-0.225,-0.378l-0.224,-0.38l-0.22,-0.382l-0.219,-0.383l-0.217,-0.384l-0.214,-0.386l-0.212,-0.387l-0.21,-0.388l-0.207,-0.39l-0.205,-0.392l-0.203,-0.393l-0.2,-0.394l-0.198,-0.395l-0.196,-0.397l-0.194,-0.398l-0.191,-0.4l-0.189,-0.401l-0.186,-0.402l-0.184,-0.403l-0.182,-0.405l-0.179,-0.406l-0.177,-0.408l-0.175,-0.408l-0.172,-0.41l-0.169,-0.412l-0.167,-0.412l-0.165,-0.414l-0.162,-0.415l-0.16,-0.416l-0.157,-0.417l-0.155,-0.419l-0.153,-0.42l-0.15,-0.421l-0.147,-0.422l-0.145,-0.423l-0.142,-0.425l-0.14,-0.425l-0.137,-0.427l-0.135,-0.428l-0.132,-0.429l-0.129,-0.43l-0.127,-0.432l-0.125,-0.432l-0.121,-0.433l-0.12,-0.435l-0.116,-0.435l-0.114,-0.437l-0.111,-0.438l-0.109,-0.439l-0.106,-0.439l-0.103,-0.441l-0.101,-0.442l-0.098,-0.443l-0.095,-0.444l-0.093,-0.445l-0.09,-0.446l-0.087,-0.446l-0.084,-0.448l-0.082,-0.449l-0.079,-0.449l-0.076,-0.451l-0.074,-0.452l-0.07,-0.452l-0.068,-0.453l-0.065,-0.455l-0.063,-0.455l-0.059,-0.456l-0.057,-0.457l-0.054,-0.458l-0.051,-0.458l-0.048,-0.46l-0.045,-0.46l-0.043,-0.461l-0.039,-0.462l-0.037,-0.463l-0.034,-0.463l-0.031,-0.465l-0.028,-0.465l-0.025,-0.466l-0.022,-0.466l-0.019,-0.468l-0.017,-0.468l-0.013,-0.469l-0.011,-0.47l-0.007,-0.47l-0.005,-0.471l-0.001,-0.472l0.001,-0.472l0.005,-0.471l0.007,-0.47l0.011,-0.47l0.013,-0.469l0.017,-0.468l0.019,-0.468l0.022,-0.466l0.025,-0.466l0.028,-0.465l0.031,-0.465l0.034,-0.463l0.037,-0.463l0.039,-0.462l0.043,-0.461l0.045,-0.46l0.048,-0.46l0.051,-0.458l0.054,-0.458l0.057,-0.457l0.059,-0.456l0.063,-0.455l0.065,-0.455l0.068,-0.453l0.07,-0.452l0.074,-0.452l0.076,-0.451l0.079,-0.449l0.082,-0.449l0.084,-0.448l0.087,-0.446l0.09,-0.446l0.093,-0.445l0.095,-0.444l0.098,-0.443l0.101,-0.442l0.103,-0.441l0.106,-0.439l0.109,-0.439l0.111,-0.438l0.114,-0.437l0.116,-0.435l0.12,-0.435l0.121,-0.433l0.125,-0.432l0.127,-0.432l0.129,-0.43l0.132,-0.429l0.135,-0.428l0.137,-0.427l0.14,-0.425l0.142,-0.425l0.145,-0.423l0.147,-0.422l0.15,-0.421l0.153,-0.42l0.155,-0.419l0.157,-0.417l0.16,-0.416l0.162,-0.415l0.165,-0.414l0.167,-0.412l0.169,-0.412l0.172,-0.41l0.175,-0.408l0.177,-0.408l0.179,-0.406l0.182,-0.405l0.184,-0.403l0.186,-0.402l0.189,-0.401l0.191,-0.4l0.194,-0.398l0.196,-0.397l0.198,-0.395l0.2,-0.394l0.203,-0.393l0.205,-0.392l0.207,-0.39l0.21,-0.388l0.212,-0.387l0.214,-0.386l0.217,-0.384l0.219,-0.383l0.22,-0.382l0.224,-0.38l0.225,-0.378l0.228,-0.377l0.23,-0.376l0.232,-0.374l0.234,-0.372l0.236,-0.371l0.239,-0.37l0.24,-0.368l0.243,-0.366l0.245,-0.365l0.248,-0.363l0.249,-0.362l0.251,-0.36l0.254,-0.359l0.255,-0.357l0.258,-0.355l0.26,-0.354l0.261,-0.352l0.264,-0.351l0.266,-0.349l0.268,-0.347l0.27,-0.346l0.272,-0.344l0.274,-0.342l0.276,-0.341l0.278,-0.339l0.28,-0.337l0.282,-0.335l0.284,-0.334l0.286,-0.332l0.288,-0.33l0.29,-0.329l0.292,-0.327l0.294,-0.325l0.295,-0.323l0.298,-0.322l0.299,-0.319l0.301,-0.318l0.304,-0.316l0.305,-0.315l0.307,-0.312l0.308,-0.311l0.311,-0.308l0.312,-0.307l0.315,-0.305l0.316,-0.304l0.318,-0.301l0.319,-0.299l0.322,-0.298l0.323,-0.295l0.325,-0.294l0.327,-0.292l0.329,-0.29l0.33,-0.288l0.332,-0.286l0.334,-0.284l0.335,-0.282l0.337,-0.28l0.339,-0.278l0.341,-0.276l0.342,-0.274l0.344,-0.272l0.346,-0.27l0.347,-0.268l0.349,-0.266l0.351,-0.264l0.352,-0.261l0.354,-0.26l0.355,-0.258l0.357,-0.255l0.359,-0.254l0.36,-0.251l0.362,-0.249l0.363,-0.248l0.365,-0.245l0.366,-0.243l0.368,-0.24l0.37,-0.239l0.371,-0.236l0.372,-0.234l0.374,-0.232l0.376,-0.23l0.377,-0.228l0.378,-0.225l0.38,-0.224l0.382,-0.22l0.383,-0.219l0.384,-0.217l0.386,-0.214l0.387,-0.212l0.388,-0.21l0.39,-0.207l0.392,-0.205l0.393,-0.203l0.394,-0.2l0.395,-0.198l0.397,-0.196l0.398,-0.194l0.4,-0.191l0.401,-0.189l0.402,-0.186l0.403,-0.184l0.405,-0.182l0.406,-0.179l0.408,-0.177l0.408,-0.175l0.41,-0.172l0.412,-0.169l0.412,-0.167l0.414,-0.165l0.415,-0.162l0.416,-0.16l0.417,-0.157l0.419,-0.155l0.42,-0.153l0.421,-0.15l0.422,-0.147l0.423,-0.145l0.425,-0.142l0.425,-0.14l0.427,-0.137l0.428,-0.135l0.429,-0.132l0.43,-0.129l0.432,-0.127l0.432,-0.125l0.433,-0.121l0.435,-0.12l0.435,-0.116l0.437,-0.114l0.438,-0.111l0.439,-0.109l0.439,-0.106l0.441,-0.103l0.442,-0.101l0.443,-0.098l0.444,-0.095l0.445,-0.093l0.446,-0.09l0.446,-0.087l0.448,-0.084l0.449,-0.082l0.449,-0.079l0.451,-0.076l0.452,-0.074l0.452,-0.07l0.453,-0.068l0.455,-0.065l0.455,-0.063l0.456,-0.059l0.457,-0.057l0.458,-0.054l0.458,-0.051l0.46,-0.048l0.46,-0.045l0.461,-0.043l0.462,-0.039l0.463,-0.037l0.463,-0.034l0.465,-0.031l0.465,-0.028l0.466,-0.025l0.466,-0.022l0.468,-0.019l0.468,-0.017l0.469,-0.013l0.47,-0.011l0.47,-0.007l0.471,-0.005l0.472,-0.001l0.472,0.001Zm-0.874,11l-0.401,0.004l-0.401,0.007l-0.4,0.008l-0.399,0.012l-0.399,0.014l-0.397,0.016l-0.398,0.019l-0.396,0.021l-0.396,0.024l-0.394,0.027l-0.395,0.028l-0.393,0.032l-0.393,0.033l-0.391,0.036l-0.392,0.039l-0.39,0.041l-0.39,0.043l-0.388,0.046l-0.388,0.048l-0.388,0.051l-0.386,0.052l-0.386,0.056l-0.385,0.057l-0.384,0.06l-0.383,0.063l-0.382,0.064l-0.382,0.067l-0.381,0.07l-0.379,0.071l-0.38,0.074l-0.378,0.076l-0.377,0.079l-0.377,0.081l-0.375,0.083l-0.375,0.085l-0.374,0.088l-0.373,0.09l-0.372,0.092l-0.371,0.094l-0.371,0.097l-0.369,0.099l-0.369,0.101l-0.367,0.103l-0.367,0.106l-0.366,0.107l-0.364,0.11l-0.364,0.112l-0.363,0.114l-0.362,0.117l-0.361,0.118l-0.36,0.121l-0.359,0.123l-0.358,0.125l-0.357,0.127l-0.356,0.129l-0.355,0.131l-0.354,0.134l-0.353,0.135l-0.352,0.138l-0.351,0.14l-0.35,0.142l-0.349,0.144l-0.348,0.146l-0.347,0.148l-0.345,0.15l-0.345,0.152l-0.343,0.154l-0.343,0.156l-0.341,0.158l-0.34,0.16l-0.339,0.163l-0.338,0.164l-0.337,0.166l-0.336,0.168l-0.334,0.17l-0.334,0.173l-0.332,0.174l-0.331,0.176l-0.33,0.178l-0.329,0.18l-0.327,0.182l-0.327,0.184l-0.325,0.185l-0.324,0.188l-0.323,0.19l-0.321,0.191l-0.32,0.193l-0.319,0.196l-0.318,0.197l-0.317,0.199l-0.315,0.2l-0.314,0.203l-0.312,0.205l-0.312,0.206l-0.31,0.208l-0.308,0.21l-0.308,0.212l-0.306,0.214l-0.305,0.215l-0.303,0.217l-0.302,0.219l-0.301,0.221l-0.299,0.223l-0.298,0.224l-0.297,0.226l-0.295,0.228l-0.294,0.229l-0.292,0.232l-0.292,0.233l-0.289,0.234l-0.288,0.237l-0.287,0.238l-0.285,0.24l-0.284,0.241l-0.282,0.243l-0.281,0.245l-0.28,0.247l-0.278,0.248l-0.276,0.249l-0.275,0.252l-0.273,0.253l-0.272,0.254l-0.271,0.257l-0.268,0.258l-0.268,0.259l-0.265,0.261l-0.264,0.262l-0.263,0.265l-0.261,0.265l-0.259,0.268l-0.258,0.268l-0.257,0.271l-0.254,0.272l-0.253,0.273l-0.252,0.275l-0.249,0.277l-0.248,0.277l-0.247,0.28l-0.245,0.281l-0.243,0.282l-0.241,0.284l-0.24,0.285l-0.238,0.287l-0.237,0.288l-0.234,0.29l-0.233,0.291l-0.232,0.292l-0.229,0.294l-0.228,0.295l-0.226,0.297l-0.224,0.298l-0.223,0.299l-0.221,0.301l-0.219,0.302l-0.217,0.303l-0.215,0.305l-0.214,0.306l-0.212,0.307l-0.21,0.309l-0.208,0.31l-0.206,0.312l-0.205,0.312l-0.203,0.314l-0.2,0.315l-0.199,0.317l-0.197,0.318l-0.196,0.319l-0.193,0.32l-0.191,0.321l-0.19,0.323l-0.188,0.324l-0.185,0.325l-0.184,0.327l-0.182,0.327l-0.18,0.329l-0.178,0.33l-0.176,0.331l-0.174,0.332l-0.172,0.333l-0.171,0.335l-0.168,0.336l-0.166,0.337l-0.164,0.338l-0.163,0.339l-0.16,0.34l-0.158,0.341l-0.156,0.343l-0.154,0.343l-0.152,0.345l-0.151,0.345l-0.148,0.347l-0.145,0.348l-0.144,0.349l-0.142,0.35l-0.14,0.351l-0.138,0.352l-0.135,0.353l-0.134,0.354l-0.131,0.355l-0.129,0.356l-0.127,0.357l-0.125,0.358l-0.123,0.359l-0.121,0.36l-0.118,0.361l-0.117,0.362l-0.114,0.363l-0.112,0.364l-0.11,0.364l-0.107,0.366l-0.106,0.367l-0.103,0.367l-0.101,0.369l-0.099,0.369l-0.097,0.371l-0.094,0.371l-0.092,0.372l-0.09,0.373l-0.088,0.374l-0.085,0.375l-0.083,0.375l-0.081,0.377l-0.079,0.377l-0.076,0.378l-0.074,0.38l-0.071,0.379l-0.07,0.381l-0.067,0.382l-0.064,0.382l-0.063,0.383l-0.06,0.385l-0.057,0.384l-0.056,0.386l-0.052,0.386l-0.051,0.388l-0.048,0.388l-0.046,0.388l-0.043,0.39l-0.041,0.39l-0.039,0.392l-0.036,0.391l-0.033,0.393l-0.032,0.393l-0.028,0.395l-0.027,0.394l-0.024,0.396l-0.021,0.396l-0.019,0.398l-0.016,0.397l-0.014,0.399l-0.012,0.399l-0.008,0.4l-0.007,0.401l-0.004,0.401l-0.001,0.402l0.001,0.402l0.004,0.401l0.007,0.401l0.008,0.4l0.012,0.399l0.014,0.399l0.016,0.397l0.019,0.398l0.021,0.396l0.024,0.396l0.027,0.394l0.028,0.395l0.032,0.393l0.033,0.393l0.036,0.391l0.039,0.392l0.041,0.39l0.043,0.39l0.046,0.388l0.048,0.388l0.051,0.388l0.052,0.386l0.056,0.386l0.057,0.384l0.06,0.385l0.063,0.383l0.064,0.382l0.067,0.382l0.07,0.381l0.071,0.379l0.074,0.38l0.076,0.378l0.079,0.377l0.081,0.377l0.083,0.375l0.085,0.375l0.088,0.374l0.09,0.373l0.092,0.372l0.094,0.371l0.097,0.371l0.099,0.369l0.101,0.369l0.103,0.367l0.106,0.367l0.107,0.366l0.11,0.364l0.112,0.364l0.114,0.363l0.117,0.362l0.118,0.361l0.121,0.36l0.123,0.359l0.125,0.358l0.127,0.357l0.129,0.356l0.131,0.355l0.134,0.354l0.135,0.353l0.138,0.352l0.14,0.351l0.142,0.35l0.144,0.349l0.145,0.348l0.148,0.347l0.151,0.345l0.152,0.345l0.154,0.343l0.156,0.343l0.158,0.341l0.16,0.34l0.163,0.339l0.164,0.338l0.166,0.337l0.168,0.336l0.171,0.335l0.172,0.333l0.174,0.332l0.176,0.331l0.178,0.33l0.18,0.329l0.182,0.328l0.184,0.326l0.185,0.325l0.188,0.324l0.19,0.323l0.191,0.321l0.193,0.32l0.196,0.319l0.197,0.318l0.199,0.317l0.2,0.315l0.203,0.314l0.205,0.312l0.206,0.312l0.208,0.31l0.21,0.309l0.212,0.307l0.214,0.306l0.215,0.305l0.217,0.303l0.219,0.302l0.221,0.301l0.223,0.299l0.224,0.298l0.226,0.297l0.228,0.295l0.229,0.294l0.232,0.293l0.233,0.29l0.234,0.29l0.237,0.288l0.238,0.287l0.24,0.285l0.241,0.284l0.243,0.282l0.245,0.281l0.247,0.28l0.248,0.278l0.249,0.276l0.252,0.275l0.253,0.273l0.254,0.272l0.257,0.271l0.258,0.268l0.259,0.268l0.261,0.265l0.262,0.264l0.265,0.263l0.265,0.261l0.268,0.26l0.269,0.257l0.27,0.257l0.272,0.254l0.273,0.253l0.275,0.252l0.276,0.249l0.278,0.249l0.28,0.246l0.281,0.245l0.282,0.243l0.284,0.241l0.285,0.24l0.287,0.238l0.288,0.237l0.29,0.234l0.291,0.233l0.292,0.232l0.294,0.229l0.295,0.228l0.297,0.226l0.298,0.224l0.299,0.223l0.301,0.221l0.302,0.219l0.303,0.217l0.305,0.215l0.306,0.214l0.308,0.212l0.308,0.21l0.31,0.208l0.312,0.206l0.312,0.205l0.314,0.203l0.315,0.2l0.317,0.199l0.318,0.197l0.319,0.196l0.32,0.193l0.321,0.191l0.323,0.19l0.324,0.188l0.325,0.185l0.327,0.184l0.327,0.182l0.329,0.18l0.33,0.178l0.331,0.176l0.332,0.174l0.334,0.173l0.334,0.17l0.336,0.168l0.337,0.166l0.338,0.164l0.339,0.163l0.34,0.16l0.341,0.158l0.343,0.156l0.343,0.154l0.345,0.152l0.345,0.15l0.347,0.149l0.348,0.146l0.349,0.143l0.35,0.142l0.351,0.14l0.352,0.138l0.353,0.135l0.354,0.134l0.355,0.131l0.356,0.129l0.357,0.127l0.358,0.125l0.359,0.123l0.36,0.121l0.361,0.118l0.362,0.117l0.363,0.114l0.364,0.112l0.364,0.11l0.366,0.107l0.367,0.106l0.367,0.103l0.369,0.101l0.369,0.099l0.371,0.097l0.371,0.094l0.372,0.092l0.373,0.09l0.374,0.088l0.375,0.085l0.375,0.083l0.377,0.081l0.377,0.079l0.378,0.076l0.379,0.074l0.38,0.071l0.381,0.07l0.382,0.067l0.382,0.064l0.383,0.063l0.384,0.06l0.385,0.057l0.386,0.056l0.387,0.052l0.387,0.051l0.388,0.048l0.389,0.046l0.389,0.043l0.39,0.041l0.392,0.039l0.392,0.036l0.392,0.033l0.393,0.032l0.395,0.028l0.395,0.027l0.395,0.024l0.396,0.021l0.398,0.019l0.397,0.016l0.399,0.014l0.399,0.012l0.4,0.009l0.4,0.006l0.402,0.004l0.402,0.001l0.402,-0.001l0.402,-0.004l0.4,-0.006l0.4,-0.009l0.399,-0.012l0.399,-0.014l0.397,-0.016l0.398,-0.019l0.396,-0.021l0.395,-0.024l0.395,-0.027l0.395,-0.028l0.393,-0.032l0.392,-0.033l0.392,-0.036l0.392,-0.039l0.39,-0.041l0.389,-0.043l0.389,-0.046l0.388,-0.048l0.388,-0.051l0.386,-0.052l0.386,-0.056l0.385,-0.057l0.384,-0.06l0.383,-0.063l0.382,-0.064l0.382,-0.067l0.381,-0.07l0.38,-0.071l0.379,-0.074l0.378,-0.076l0.377,-0.079l0.377,-0.081l0.375,-0.083l0.375,-0.085l0.374,-0.088l0.373,-0.09l0.372,-0.092l0.371,-0.094l0.371,-0.097l0.369,-0.099l0.369,-0.101l0.367,-0.103l0.367,-0.106l0.366,-0.107l0.364,-0.11l0.364,-0.112l0.363,-0.114l0.362,-0.117l0.361,-0.118l0.36,-0.121l0.359,-0.123l0.358,-0.125l0.357,-0.127l0.356,-0.129l0.355,-0.131l0.354,-0.134l0.353,-0.135l0.352,-0.138l0.351,-0.14l0.35,-0.142l0.349,-0.143l0.348,-0.146l0.347,-0.149l0.345,-0.15l0.345,-0.152l0.343,-0.154l0.343,-0.156l0.341,-0.158l0.34,-0.16l0.339,-0.163l0.338,-0.164l0.337,-0.166l0.336,-0.168l0.335,-0.171l0.333,-0.172l0.332,-0.174l0.331,-0.176l0.33,-0.178l0.329,-0.18l0.327,-0.182l0.327,-0.184l0.325,-0.185l0.324,-0.188l0.323,-0.19l0.321,-0.191l0.32,-0.193l0.319,-0.196l0.318,-0.197l0.316,-0.199l0.316,-0.2l0.314,-0.203l0.312,-0.205l0.312,-0.206l0.31,-0.208l0.308,-0.21l0.308,-0.212l0.306,-0.214l0.305,-0.215l0.303,-0.217l0.302,-0.219l0.301,-0.221l0.299,-0.223l0.298,-0.224l0.297,-0.226l0.295,-0.228l0.294,-0.229l0.292,-0.232l0.291,-0.233l0.29,-0.234l0.288,-0.237l0.287,-0.238l0.285,-0.24l0.284,-0.241l0.282,-0.243l0.281,-0.245l0.28,-0.246l0.278,-0.249l0.276,-0.249l0.275,-0.252l0.273,-0.253l0.272,-0.254l0.27,-0.257l0.269,-0.257l0.268,-0.26l0.265,-0.261l0.264,-0.263l0.263,-0.264l0.261,-0.265l0.259,-0.268l0.258,-0.268l0.257,-0.271l0.254,-0.272l0.253,-0.273l0.252,-0.275l0.249,-0.276l0.248,-0.278l0.247,-0.28l0.245,-0.281l0.243,-0.282l0.241,-0.284l0.24,-0.285l0.238,-0.287l0.237,-0.288l0.234,-0.289l0.233,-0.291l0.232,-0.293l0.229,-0.294l0.228,-0.295l0.226,-0.297l0.224,-0.298l0.223,-0.299l0.221,-0.301l0.219,-0.302l0.217,-0.303l0.215,-0.305l0.214,-0.306l0.212,-0.307l0.21,-0.309l0.208,-0.31l0.206,-0.312l0.205,-0.312l0.203,-0.314l0.2,-0.315l0.199,-0.317l0.197,-0.318l0.196,-0.319l0.193,-0.32l0.192,-0.321l0.189,-0.323l0.188,-0.324l0.185,-0.325l0.184,-0.326l0.182,-0.328l0.18,-0.329l0.178,-0.33l0.176,-0.331l0.174,-0.332l0.172,-0.333l0.171,-0.335l0.168,-0.336l0.166,-0.337l0.164,-0.338l0.163,-0.339l0.16,-0.34l0.158,-0.341l0.156,-0.343l0.154,-0.343l0.152,-0.345l0.151,-0.345l0.148,-0.347l0.145,-0.348l0.144,-0.349l0.142,-0.35l0.14,-0.351l0.138,-0.352l0.135,-0.353l0.134,-0.354l0.131,-0.355l0.129,-0.356l0.127,-0.357l0.125,-0.358l0.123,-0.359l0.121,-0.36l0.118,-0.361l0.117,-0.362l0.114,-0.363l0.112,-0.364l0.11,-0.364l0.107,-0.366l0.106,-0.367l0.103,-0.367l0.101,-0.369l0.099,-0.369l0.097,-0.371l0.094,-0.371l0.092,-0.372l0.09,-0.373l0.088,-0.374l0.085,-0.375l0.083,-0.375l0.081,-0.377l0.079,-0.377l0.076,-0.379l0.074,-0.378l0.071,-0.38l0.07,-0.381l0.067,-0.382l0.064,-0.382l0.063,-0.383l0.06,-0.385l0.057,-0.384l0.056,-0.386l0.052,-0.386l0.051,-0.388l0.048,-0.388l0.046,-0.388l0.043,-0.39l0.041,-0.39l0.039,-0.392l0.036,-0.391l0.033,-0.393l0.032,-0.393l0.028,-0.395l0.027,-0.395l0.024,-0.395l0.021,-0.396l0.019,-0.398l0.016,-0.397l0.014,-0.399l0.012,-0.399l0.009,-0.4l0.006,-0.401l0.004,-0.401l0.001,-0.402l-0.001,-0.402l-0.004,-0.401l-0.006,-0.401l-0.009,-0.4l-0.012,-0.399l-0.014,-0.399l-0.016,-0.397l-0.019,-0.398l-0.021,-0.396l-0.024,-0.395l-0.027,-0.395l-0.028,-0.395l-0.032,-0.393l-0.033,-0.393l-0.036,-0.391l-0.039,-0.392l-0.041,-0.39l-0.043,-0.39l-0.046,-0.388l-0.048,-0.388l-0.051,-0.388l-0.052,-0.386l-0.056,-0.386l-0.057,-0.384l-0.06,-0.385l-0.063,-0.383l-0.064,-0.382l-0.067,-0.382l-0.07,-0.381l-0.071,-0.38l-0.074,-0.378l-0.076,-0.379l-0.079,-0.377l-0.081,-0.377l-0.083,-0.375l-0.085,-0.375l-0.088,-0.374l-0.09,-0.373l-0.092,-0.372l-0.094,-0.371l-0.097,-0.371l-0.099,-0.369l-0.101,-0.369l-0.103,-0.367l-0.106,-0.367l-0.107,-0.366l-0.11,-0.364l-0.112,-0.364l-0.114,-0.363l-0.117,-0.362l-0.118,-0.361l-0.121,-0.36l-0.123,-0.359l-0.125,-0.358l-0.127,-0.357l-0.129,-0.356l-0.131,-0.355l-0.134,-0.354l-0.135,-0.353l-0.138,-0.352l-0.14,-0.351l-0.142,-0.35l-0.144,-0.349l-0.145,-0.348l-0.148,-0.347l-0.151,-0.345l-0.152,-0.345l-0.154,-0.343l-0.156,-0.343l-0.158,-0.341l-0.16,-0.34l-0.163,-0.339l-0.164,-0.338l-0.166,-0.337l-0.168,-0.336l-0.171,-0.335l-0.172,-0.333l-0.174,-0.332l-0.176,-0.331l-0.178,-0.33l-0.18,-0.329l-0.182,-0.327l-0.184,-0.327l-0.185,-0.325l-0.188,-0.324l-0.19,-0.323l-0.191,-0.321l-0.193,-0.32l-0.196,-0.319l-0.197,-0.318l-0.199,-0.317l-0.2,-0.315l-0.203,-0.314l-0.205,-0.312l-0.206,-0.312l-0.208,-0.31l-0.21,-0.309l-0.212,-0.307l-0.214,-0.306l-0.215,-0.305l-0.217,-0.303l-0.219,-0.302l-0.221,-0.301l-0.223,-0.299l-0.224,-0.298l-0.226,-0.297l-0.228,-0.295l-0.229,-0.294l-0.232,-0.292l-0.233,-0.292l-0.234,-0.289l-0.237,-0.288l-0.238,-0.287l-0.24,-0.285l-0.241,-0.284l-0.243,-0.282l-0.245,-0.281l-0.247,-0.28l-0.248,-0.277l-0.249,-0.277l-0.252,-0.275l-0.253,-0.273l-0.254,-0.272l-0.257,-0.271l-0.258,-0.268l-0.259,-0.268l-0.261,-0.265l-0.263,-0.265l-0.264,-0.262l-0.265,-0.261l-0.268,-0.26l-0.269,-0.257l-0.27,-0.257l-0.272,-0.254l-0.273,-0.253l-0.275,-0.252l-0.276,-0.249l-0.278,-0.249l-0.28,-0.246l-0.281,-0.245l-0.282,-0.243l-0.284,-0.241l-0.285,-0.24l-0.287,-0.238l-0.288,-0.237l-0.29,-0.234l-0.291,-0.233l-0.292,-0.232l-0.294,-0.229l-0.295,-0.228l-0.297,-0.226l-0.298,-0.224l-0.299,-0.223l-0.301,-0.221l-0.302,-0.219l-0.303,-0.217l-0.305,-0.215l-0.306,-0.214l-0.308,-0.212l-0.308,-0.21l-0.31,-0.208l-0.312,-0.206l-0.312,-0.205l-0.314,-0.203l-0.316,-0.2l-0.316,-0.199l-0.318,-0.197l-0.319,-0.196l-0.32,-0.193l-0.321,-0.191l-0.323,-0.19l-0.324,-0.188l-0.325,-0.185l-0.327,-0.184l-0.327,-0.182l-0.329,-0.18l-0.33,-0.178l-0.331,-0.176l-0.332,-0.174l-0.333,-0.172l-0.335,-0.171l-0.336,-0.168l-0.337,-0.166l-0.338,-0.164l-0.339,-0.163l-0.34,-0.16l-0.341,-0.158l-0.343,-0.156l-0.343,-0.154l-0.345,-0.152l-0.345,-0.15l-0.347,-0.148l-0.348,-0.146l-0.349,-0.144l-0.35,-0.142l-0.351,-0.14l-0.352,-0.138l-0.353,-0.135l-0.354,-0.134l-0.355,-0.131l-0.356,-0.129l-0.357,-0.127l-0.358,-0.125l-0.359,-0.123l-0.36,-0.121l-0.361,-0.118l-0.362,-0.117l-0.363,-0.114l-0.364,-0.112l-0.364,-0.11l-0.366,-0.107l-0.367,-0.106l-0.367,-0.103l-0.369,-0.101l-0.369,-0.099l-0.371,-0.097l-0.371,-0.094l-0.372,-0.092l-0.373,-0.09l-0.374,-0.088l-0.375,-0.085l-0.375,-0.083l-0.377,-0.081l-0.377,-0.079l-0.378,-0.076l-0.38,-0.074l-0.379,-0.071l-0.381,-0.07l-0.382,-0.067l-0.382,-0.064l-0.383,-0.063l-0.384,-0.06l-0.385,-0.057l-0.386,-0.056l-0.386,-0.052l-0.388,-0.051l-0.388,-0.048l-0.388,-0.046l-0.39,-0.043l-0.39,-0.041l-0.392,-0.039l-0.391,-0.036l-0.393,-0.033l-0.393,-0.032l-0.395,-0.028l-0.394,-0.027l-0.396,-0.024l-0.396,-0.021l-0.398,-0.019l-0.397,-0.016l-0.399,-0.014l-0.399,-0.012l-0.4,-0.008l-0.401,-0.007l-0.401,-0.004l-0.402,-0.001l-0.402,0.001Z"/></svg>