<?xml version="1.0" encoding="iso-8859-1"?>
<!-- Generator: Adobe Illustrator 16.0.0, SVG Export Plug-In . SVG Version: 6.00 Build 0)  -->
<!DOCTYPE svg PUBLIC "-//W3C//DTD SVG 1.1//EN" "http://www.w3.org/Graphics/SVG/1.1/DTD/svg11.dtd">
<svg version="1.1" id="Capa_1" xmlns="http://www.w3.org/2000/svg" xmlns:xlink="http://www.w3.org/1999/xlink" x="0px" y="0px"
	 width="568.181px" height="568.181px" viewBox="0 0 568.181 568.181" style="enable-background:new 0 0 568.181 568.181;"
	 xml:space="preserve">
<g>
	<g>
		<path d="M363.128,8.253C236.138-27.854,66.614,59.049,20.103,180.531c-37.026,96.696-7.65,261.324,109.242,284.274
			c-18.972,22.949-15.912,55.386,10.404,73.134s48.96,0.306,62.73-22.032c2.142,22.645,6.426,46.206,30.906,51.408
			c27.846,5.813,44.064-18.666,51.714-43.758c3.979,22.031,12.546,45.288,36.414,43.758c20.809-1.224,33.66-17.748,39.475-36.72
			c11.016,18.972,28.458,33.354,52.02,23.562c33.354-14.076,22.95-55.386,6.12-77.724C667.292,418.6,558.968,64.251,363.128,8.253z
			 M410.252,462.97c-6.12,1.529-6.732,7.956-3.672,11.934c-2.143,2.142-3.061,4.896-0.612,7.956
			c11.628,15.3,24.48,41.616,4.284,55.998c-25.092,17.748-42.229-25.092-46.206-41.616c-2.448-9.792-15.912-5.202-14.688,3.979
			c2.448,19.277-13.157,69.768-41.004,46.206c-12.24-10.404-14.382-31.519-18.359-47.124c0.306-1.836,0.306-3.672,0.306-5.509
			c0.306-9.18-14.076-9.18-14.382,0c-0.612,18.973-26.316,88.435-52.02,49.267c-10.098-15.606-6.732-40.086-9.486-57.834
			c-1.224-7.65-12.24-6.426-14.076,0c-7.038,23.256-24.48,54.468-52.938,39.168c-24.786-13.464-18.054-43.146-5.202-61.812
			c2.754-3.672-2.448-7.344-5.814-5.508c-0.306-0.306-0.612-0.612-1.224-0.612C22.856,424.107,3.579,281.817,34.791,184.815
			C74.876,58.743,254.192-5.517,372.308,28.449C559.886,82.305,629.042,406.359,410.252,462.97z"/>
		<path d="M248.378,92.709c-0.612-0.612-1.53-1.224-2.142-1.53c-0.612-0.918-1.836-1.53-3.366-1.53
			c-81.702-1.224-130.968,85.068-153.612,153.306c-13.77,41.31-18.054,136.782,35.19,155.142
			C260.924,445.833,323.348,171.352,248.378,92.709z M145.256,387.081c-61.506,4.284-49.572-108.018-40.698-139.842
			C122,185.427,168.207,111.987,235.526,99.441c0.306,1.53,0.612,3.06,1.836,4.284C304.682,177.471,255.417,379.432,145.256,387.081
			z"/>
		<path d="M497.157,258.562c-13.158-81.396-74.664-156.366-149.635-187.578c-9.18-3.978-13.157,11.016-3.978,14.994
			c55.692,23.256,93.636,67.932,120.258,120.87c15.3,30.294,21.727,64.26,22.032,97.614c0.612,59.059-48.654,101.286-100.062,58.141
			c-62.729-52.632-99.756-207.468-48.042-273.87c3.979-4.896-2.142-11.322-7.038-7.038c-49.266,44.982-31.823,127.602-15.3,183.6
			c16.524,55.998,51.408,132.804,119.34,133.416C502.358,398.709,504.5,303.237,497.157,258.562z"/>
		<path d="M339.567,392.589c-9.486-11.934-24.175-18.054-33.967-29.376c-2.142-2.754-5.202-2.754-7.344-1.224
			c-0.306,0-0.306,0-0.612,0c-23.256,8.262-44.676,33.048-33.048,58.752c3.672,8.262,11.322,13.464,20.502,11.322
			c6.732-1.53,11.322-7.344,14.688-13.771c11.016,14.076,29.987,25.398,41.922,9.792
			C349.358,418.293,346.604,401.77,339.567,392.589z M331.917,417.069c-1.225,6.732-8.568,3.672-12.546,1.224
			c-7.038-3.978-12.24-11.016-13.771-18.972c-1.529-7.344-11.628-6.12-13.77,0c-1.836,5.508-4.896,16.524-10.71,18.36
			c-0.612,0.306-0.612,0.306-1.836-0.612c-1.53-1.224-2.448-3.366-3.06-5.202c-5.202-15.912,7.038-30.906,19.583-39.78
			c0,0,0,0.307,0.306,0.307C307.743,386.47,336.201,395.344,331.917,417.069z"/>
	</g>
</g>
<g>
</g>
<g>
</g>
<g>
</g>
<g>
</g>
<g>
</g>
<g>
</g>
<g>
</g>
<g>
</g>
<g>
</g>
<g>
</g>
<g>
</g>
<g>
</g>
<g>
</g>
<g>
</g>
<g>
</g>
</svg>
